<?xml version="1.0" encoding="UTF-8"?>
<!-- Generator: Adobe Illustrator 14.0.0, SVG Export Plug-In . SVG Version: 6.00 Build 43363)  -->
<!DOCTYPE svg PUBLIC "-//W3C//DTD SVG 1.1//EN" "http://www.w3.org/Graphics/SVG/1.1/DTD/svg11.dtd">
<svg version="1.1" id="Layer_1" xmlns="http://www.w3.org/2000/svg" xmlns:xlink="http://www.w3.org/1999/xlink" x="0px" y="0px" width="379px" height="64px" viewBox="0 0 379 64" enable-background="new 0 0 379 64" xml:space="preserve">
<g>
	<g>
		<g>
			<g>
				<path d="M23.425,4.873c1.06,0.092,2.729,0.619,3.978,1.718c1.338,1.293,1.636,3.253,1.17,5.033      c-0.417,1.596-0.879,2.421-2.506,3.51c-1.634,1.119-3.623,1.029-3.623,1.029v6.876l3.359,2.717l-3.359,2.709v9.383      c0,0,3.363-1.934,5.448-6.229c0,0,0.082-0.245,0.277-0.691c0.185,1.158,0.08,3.505-1.229,6.494      c-0.985,2.259-2.769,4.441-5.014,5.687c-3.98,2.191-6.964,2.41-10.163,1.744c-3.74-0.779-7.145-2.869-9.471-6.544      c-1.624-2.583-2.357-5.587-2.294-8.836c0.137-6.344,4.857-11.813,10.315-13.866c0.662-0.249,0.928-0.417,1.869-0.498      c-0.433,0.298-0.937,0.67-1.553,1.082c-1.758,1.167-3.265,3.457-3.904,5.228l10.585-4.724v14.806l-8.533,4.263      c0.971,1.368,3.926,3.402,6.458,3.688c4.297,0.47,6.82-1.406,6.82-1.406v-9.58l-3.334-2.709l3.334-2.705v-6.888      c-1.816-0.216-4.025-0.818-5.32-1.139c-1.898-0.468-8.228-2.243-9.221-2.389c-0.994-0.147-2.221-0.104-2.962,0.56      c-0.748,0.675-1.205,1.848-0.888,2.912c0.18,0.597,0.591,0.951,0.904,1.288c0,0-0.362-0.025-1.026-0.426      c-1.196-0.715-2.107-2.122-2.219-3.857c-0.131-2.258,0.797-4.3,2.667-5.681c1.628-1.039,3.464-1.712,5.602-1.409      c3.118,0.443,7.303,2.216,11.042,3.104C22.08,9.481,23.203,9.595,24.219,9c0.472-0.332,1.308-1.209,0.628-2.394      c-0.797-1.364-2.32-1.331-3.612-1.581C22.345,4.792,22.595,4.792,23.425,4.873z M10.836,34.299V20.005L6.54,21.93      c0,0-1.099,2.448-0.908,6.015c0.149,2.78,1.708,6.107,2.903,7.493L10.836,34.299z"/>
				<path d="M64.484,19.309c0,0-3.236,1.979-5.423,3.269c-2.175,1.292-5.106,2.73-5.106,2.73v13.635l-1.951,1.567l0.257,0.301      l1.909-1.543l5.96,5.398l10.37-8.215l-0.248-0.295l-5.727,4.494l-4.709-4.408v-1.648l9.461-6.951L64.484,19.309z M64.62,30.573      l-4.804,3.523V22.389L64.62,30.573z"/>
				<g>
					<path d="M37.31,49.801c1.36,0.332,3.762,0.518,6.658-0.93c3.203-1.6,4.818-5.012,4.794-8.512l0.14-4.936V24.605l2.048-1.565       l-0.241-0.306l-2.017,1.536l-4.654-5.19l-5.972,5.134V6.783l-7.461,5.768c0.331,0.222,1.388,0.41,1.425,1.902v24.4       l-3.169,2.347l0.223,0.316l1.521-1.123l4.252,3.949l6.685-5.324l-0.237-0.309l-1.575,1.25l-1.663-1.653l0.018-13.599       l1.95-1.667l2.901,3.624c0,0-0.002,8.795,0.004,11.729c-0.021,3.104-0.028,7.002-1.67,8.887       C39.632,49.159,38.973,49.3,37.31,49.801z"/>
				</g>
			</g>
			<g>
				<g>
					<path d="M83.733,48.567c-2.675-0.313-3.795-1.924-3.764-3.196c0.022-0.831,0.764-2.428,2.386-2.655       c1.623-0.216,3.278,0.54,4.688,2.184l6.166-6.818l-0.293-0.266l-1.658,1.855c-1.688-1.914-4.076-3.126-6.454-3.469V15.419       l16.031,29.206c0,0,0.155,0.328,0.814,0.328c0.566,0.006,0.432-0.464,0.432-0.464l-0.009-29.383       c1.304-0.054,3.301-0.781,4.26-1.761c3.09-3.175,1.83-6.629,1.49-6.973c-0.189,1.524-1.352,3.035-3.292,3.042       c-2.545,0.01-4.102-1.87-4.102-1.87l-6.163,7.028l0.292,0.272l1.764-2.015c2.161,1.986,3.739,2.163,5.369,2.274v17.052       L89.792,10.551c-1.075-1.776-2.712-3.353-5.28-3.368c-2.959-0.019-5.071,2.582-5.324,4.821c-0.288,2.536,0.035,3.12,0.035,3.12       s0.431-2.825,2.176-2.792c1.566,0.022,2.382,1.461,3.014,2.542v6.261c-1.62,0.121-5.828,0.293-6.093,4.683       c-0.01,1.624,1.001,3.334,1.889,3.909c1.134,0.75,2.025,0.73,2.025,0.73s-1.366-0.727-0.963-2.166       c0.37-1.273,3.046-1.479,3.146-0.948v8.83c-1.291-0.01-5.417,0.123-7.267,3.662c-1.125,2.125-1.055,4.52,0.145,6.191       C78.27,47.408,80.276,49.159,83.733,48.567z"/>
				</g>
				<path d="M117.591,19.309c0,0-3.247,1.979-5.424,3.269c-2.187,1.292-5.107,2.73-5.107,2.73v13.635l-1.947,1.567l0.261,0.301      l1.903-1.543l5.959,5.398l10.376-8.215l-0.244-0.295l-5.739,4.494l-4.707-4.408v-1.648l9.457-6.951L117.591,19.309z       M117.727,30.573l-4.805,3.523V22.389L117.727,30.573z"/>
				<g>
					<path d="M132.086,44.771l-5.083-4.228l-2.236,1.622l-0.216-0.315l2.263-1.657V28.381c0.105-4.863-4.455-3.659-4.21-8.819       c0.114-2.268,2.307-3.978,3.417-4.548c1.18-0.604,2.469-0.604,2.469-0.604s-2.084,1.308-1.583,3.176       c0.782,2.887,5.717,3.145,5.799,6.978v13.407l3.645,2.916l0.962-0.756V25.628l-1.965-1.955l5.051-4.46l4.624,4.091       l-1.766,1.899v12.854l4.327,3.569l0.766-0.477V25.67l-1.969-1.838l5.071-4.635l4.73,3.91l1.893-1.67l0.254,0.295l-4.257,3.738       v12.602l-10.89,6.726l-5.573-4.405L132.086,44.771z"/>
				</g>
			</g>
			<path d="M354.878,19.309c0,0-3.247,1.979-5.423,3.269c-2.181,1.292-5.111,2.73-5.111,2.73v13.635l-1.944,1.567l0.249,0.301     l1.908-1.543l5.971,5.398l10.367-8.215l-0.251-0.295l-5.73,4.494l-4.713-4.408v-1.648l9.475-6.951L354.878,19.309z      M355.025,30.573l-4.825,3.523V22.389L355.025,30.573z"/>
			<g>
				<g>
					<polygon points="306.206,25.027 306.457,25.311 308.404,23.634 311.306,26.91 311.306,38.189 309.901,39.469 314.413,44.578 319.044,40.01 317.142,38.03 317.142,24.399 318.299,23.479 321.516,27.222 321.516,38.462 320.297,39.665 324.559,44.453 329.098,39.896 327.427,38.146 327.39,24.456 328.612,23.464 331.956,27.143 331.956,38.317 330.854,39.42 335.558,44.537 341.863,38.717 341.601,38.426 340.058,39.836 337.707,37.228 337.707,24.473 339.977,22.751 339.742,22.442 337.466,24.166 333.175,19.351 327.053,24.209 322.745,19.532 316.831,24.16 312.486,19.548"/>
				</g>
			</g>
			<g>
				<polygon points="293.361,24.667 293.616,24.965 295.268,23.539 297.859,26.594 297.859,39.477 296.038,41.069 296.28,41.365 298.19,39.727 302.356,44.537 308.369,39.166 308.115,38.864 306.349,40.432 303.858,37.566 303.858,24.968 305.957,23.15 305.703,22.846 303.709,24.564 299.326,19.459"/>
				<polygon points="295.101,14.008 299.624,9.855 303.31,13.94 298.764,18.066"/>
			</g>
			<path d="M289.008,4.873c1.057,0.092,2.72,0.619,3.979,1.718c1.332,1.293,1.641,3.253,1.172,5.033     c-0.416,1.596-0.882,2.421-2.507,3.51c-1.646,1.119-3.621,1.029-3.621,1.029v6.876l3.355,2.717l-3.355,2.709v9.383     c0,0,3.358-1.934,5.434-6.229c0,0,0.1-0.245,0.289-0.691c0.18,1.158,0.083,3.505-1.223,6.494     c-0.986,2.259-2.778,4.441-5.023,5.687c-3.979,2.191-6.957,2.41-10.157,1.744c-3.745-0.779-7.153-2.869-9.469-6.544     c-1.637-2.583-2.36-5.587-2.295-8.836c0.128-6.344,4.854-11.813,10.314-13.866c0.652-0.249,0.928-0.417,1.862-0.498     c-0.432,0.298-0.921,0.67-1.553,1.082c-1.756,1.167-3.264,3.457-3.897,5.228l10.58-4.724v14.806l-8.535,4.263     c0.979,1.368,3.927,3.402,6.456,3.688c4.295,0.47,6.832-1.406,6.832-1.406v-9.58l-3.348-2.709l3.348-2.705v-6.888     c-1.82-0.216-4.027-0.818-5.322-1.139c-1.903-0.468-8.23-2.243-9.231-2.389c-0.989-0.147-2.213-0.104-2.956,0.56     c-0.751,0.675-1.2,1.848-0.891,2.912c0.179,0.597,0.594,0.951,0.904,1.288c0,0-0.36-0.025-1.021-0.426     c-1.195-0.715-2.111-2.122-2.214-3.857c-0.143-2.258,0.785-4.3,2.661-5.681c1.62-1.039,3.461-1.712,5.604-1.409     c3.112,0.443,7.308,2.216,11.044,3.104c1.439,0.354,2.568,0.469,3.578-0.126c0.475-0.332,1.305-1.209,0.629-2.394     c-0.802-1.364-2.324-1.331-3.612-1.581C287.927,4.792,288.168,4.792,289.008,4.873z M276.422,34.299V20.005l-4.295,1.924     c0,0-1.103,2.448-0.912,6.015c0.147,2.78,1.711,6.107,2.91,7.493L276.422,34.299z"/>
			<path d="M366.417,46.438c-0.691,0.195-3.668-0.531-4.39-3.626c-0.701-3.013,1.4-5.055,4.559-8.267l-3.729-3.411v-6.52     c0,0,2.746-1.368,4.893-2.715c2.143-1.348,4.349-2.797,4.349-2.797s1.605,2.014,3.419,1.862c2.843-0.249,2.709-2.488,2.623-3.019     c0.479,0.869,1.78,3.44-3.208,9.189l4.062,3.275v8.46c0,0-4.71,2.463-9.182,5.723c0,0-2.484-3.124-4.652-1.618     C363.691,43.974,364.371,45.672,366.417,46.438z M362.908,39.896c0,0,2.142-3.541,5.824-2.771     c3.535,0.724,4.767,4.456,4.767,4.456V32.99l-2.465-2.137C368.325,33.576,363.507,37.511,362.908,39.896z M368.372,21.95v6.765     l2.258,1.976c0,0,4.895-3.925,6.678-7.556c0,0-2.209,2.986-5.159,2.068C369.658,24.443,368.372,21.95,368.372,21.95z"/>
			<g>
				<path d="M213.943,24.942l1.833-1.686l0.255,0.295l-1.78,1.651v13.459c0,0-3.378,1.81-5.746,3.127      c-2.357,1.338-4.882,2.905-4.882,2.905l-6.203-5.235l-1.655,1.431l-0.267-0.306l1.743-1.5v-14.47h0.021      c0,0,2.925-1.317,5.384-2.715c2.217-1.239,4.697-2.692,4.697-2.692L213.943,24.942z M203.128,36.797l5.239,4.751V27.019      l-5.239-4.844V36.797z"/>
				<g>
					<path d="M226.145,23.583l3.95-4.034c0,0,0.543,0.474,1.057,0.727c0.284,0.141,1.481,0.749,2.567,0.154       c0.601-0.33,0.683-0.414,1.327-1.03c0.134,3.146-1.371,5.337-3.251,6.255c-0.753,0.371-3.009,1.093-5.355-1.771v14.486       l2.495,2.195l2.094-1.718l0.231,0.302l-6.53,5.449l-4.967-4.527l-1.78,1.689l-0.287-0.312l2.714-2.454l0.025-12.499       l-2.093-2.767l-1.792,1.58l-0.26-0.28l6.335-5.7L226.145,23.583z"/>
				</g>
				<g>
					<path d="M242.787,29.618l7.287-10.607c0,0,0.953,1.133,2.634,1.574c2.276,0.591,4.269-1.603,4.269-1.603       c-0.385,2.829-1.828,6.063-4.801,6.542c-2.612,0.439-5.045-1.591-5.045-1.591l-0.463,0.726l10.122,15.289l2.017-1.771       l0.265,0.295l-6.948,6.069L242.787,29.618z"/>
					<path d="M236.749,15.449c0-2.288-0.932-3.707-2.155-3.606l7.943-5.579v31.623l0,0l2.11,2.213l1.581-1.377l0.259,0.295       l-6.416,5.601l-4.339-4.083l-1.727,1.534l-0.287-0.302l3.03-2.646V15.449z"/>
				</g>
				<path d="M170.259,14.92c0-2.123-0.868-3.329-2.276-3.355c-2.02-0.041-2.504,2.807-2.504,2.807s-0.365-2.188,1.474-4.189      c1.038-1.124,2.964-2.681,5.979-1.958c3.123,0.753,4.011,3.171,4.011,5.303v29.434c0,0,1.167,0.139,1.981,0.306      c0.929,0.208,1.822,0.462,1.822,0.462V8.241h0.386v4.789l6.39-5.14l4.68,4.155l2.182-1.898l0.243,0.307l-2.272,1.96v27.351      c-0.116,1.796-0.406,3.606-2.093,4.652c-3.751,2.229-8.292-0.344-12.332-0.935c-3.002-0.435-7.706-1.007-8.881,1.745      c-0.397,0.909-0.368,2.303,0.997,3.207c2.729,1.828,14.874-3.058,19.049-1.112c3.803,1.769,3.787,4.565,3.208,6.482      c-0.992,3.608-5.549,4.237-5.549,4.237s2.231-1.283,1.589-3.422c-0.318-1.096-1.049-1.393-3.443-1.131      c-5.21,0.592-11.433,3.121-15.613,1.369c-2.162-0.896-3.681-3.598-3.535-6.24c0.107-3.818,4.509-5.327,4.509-5.327V29.203      c-0.127-0.572-2.481-0.412-2.99,0.621c-0.782,1.557,0.97,2.287,0.97,2.287s-1.451,0.204-2.667-1.195      c-0.59-0.673-1.833-3.085-0.233-5.302c1.329-1.831,2.921-2.149,4.92-2.373V14.92z M181.132,43.822c0,0,1.868,0.501,3.207-0.619      c1.498-1.229,1.343-2.97,1.343-2.97V29.279c0,0-0.873-1.113-2.256-1.113c-1.378,0-2.294,1.143-2.294,1.143V43.822z       M185.682,15.055l-3.071-2.696l-1.479,1.168v10.158c0,0,0.916,1.16,2.294,1.16c1.383,0,2.256-1.114,2.256-1.114V15.055z       M185.682,24.338c0,0-0.876,0.999-2.266,0.999c-1.375,0-2.284-1-2.284-1v4.323c0,0,0.908-1.003,2.284-1.003      c1.39,0,2.266,0.95,2.266,0.95V24.338z"/>
			</g>
		</g>
	</g>
</g>
</svg>